<?xml version="1.0" encoding="UTF-8" standalone="no"?>
<!-- Created with Inkscape (http://www.inkscape.org/) -->

<svg
   width="64"
   height="64"
   viewBox="0 0 16.933332 16.933334"
   version="1.1"
   id="svg5"
   xmlns="http://www.w3.org/2000/svg"
   xmlns:svg="http://www.w3.org/2000/svg"
   xmlns:rdf="http://www.w3.org/1999/02/22-rdf-syntax-ns#"
   xmlns:cc="http://creativecommons.org/ns#"
   xmlns:dc="http://purl.org/dc/elements/1.1/">
  <defs
     id="defs2" />
  <metadata
     id="metadata856">
    <rdf:RDF>
      <cc:Work
         rdf:about="">
        <dc:creator>
          <cc:Agent>
            <dc:title>Inspire Studio</dc:title>
          </cc:Agent>
        </dc:creator>
        <cc:license
           rdf:resource="http://creativecommons.org/publicdomain/zero/1.0/" />
        <dc:description>Thank you for using this artwork. Feel free to visit our page https://www.pinterest.com.au/inspirestudiobox for more designs. We wish you have a wonderful day, everyday. Amitabha</dc:description>
      </cc:Work>
      <cc:License
         rdf:about="http://creativecommons.org/publicdomain/zero/1.0/">
        <cc:permits
           rdf:resource="http://creativecommons.org/ns#Reproduction" />
        <cc:permits
           rdf:resource="http://creativecommons.org/ns#Distribution" />
        <cc:permits
           rdf:resource="http://creativecommons.org/ns#DerivativeWorks" />
      </cc:License>
    </rdf:RDF>
  </metadata>
  <circle
     style="fill:#b5c9ee;fill-opacity:1;stroke:#000000;stroke-width:0.933056;stroke-dasharray:none;stroke-opacity:1"
     id="path1"
     cx="8.5315342"
     cy="8.5012808"
     r="7.9974756" />
  <g
     id="layer1-4-7"
     transform="matrix(0.11421671,0,0,0.10505459,-7.2722688,-6.8700242)"
     style="fill:#000000;fill-opacity:0.5">
    <path
       id="path98-0-7-8"
       style="stroke-width:0.134745"
       d="m 126.93946,172.80748 a 13.123399,14.267929 0 0 1 -13.1234,14.26793 13.123399,14.267929 0 0 1 -13.1234,-14.26793 13.123399,14.267929 0 0 1 13.1234,-14.26793 13.123399,14.267929 0 0 1 13.1234,14.26793 z m 51.87899,0.11072 a 13.123399,14.267929 0 0 1 -13.1234,14.26793 13.123399,14.267929 0 0 1 -13.1234,-14.26793 13.123399,14.267929 0 0 1 13.1234,-14.26793 13.123399,14.267929 0 0 1 13.1234,14.26793 z m -0.32909,-57.49065 a 13.123399,14.267929 0 0 1 -13.1234,14.26793 13.123399,14.267929 0 0 1 -13.1234,-14.26793 13.123399,14.267929 0 0 1 13.1234,-14.26793 13.123399,14.267929 0 0 1 13.1234,14.26793 z m -52.69775,1.05381 a 13.123399,14.267929 0 0 1 -13.1234,14.26793 13.123399,14.267929 0 0 1 -13.1234,-14.26793 13.123399,14.267929 0 0 1 13.1234,-14.26793 13.123399,14.267929 0 0 1 13.1234,14.26793 z m -4.83824,1.15806 45.48541,49.45233 c 1.80822,1.96592 1.80822,5.13128 0,7.0972 -1.80822,1.96593 -4.71967,1.96592 -6.52789,0 l -45.48541,-49.45233 c -1.80823,-1.96593 -1.80822,-5.13128 0,-7.0972 1.80822,-1.96593 4.71966,-1.96593 6.52789,0 z m -6.99546,48.76641 45.48541,-49.45233 c 1.80823,-1.96593 4.71966,-1.96593 6.52789,0 1.80822,1.96592 1.80823,5.13128 0,7.0972 l -45.48541,49.45233 c -1.80822,1.96593 -4.71967,1.96592 -6.52789,0 -1.80822,-1.96593 -1.80822,-5.13127 0,-7.0972 z" />
  </g>
  <g
     id="layer1-4"
     transform="matrix(0.11421671,0,0,0.10505459,-7.5444111,-6.5339629)"
     style="fill:#32383e;fill-opacity:1">
    <rect
       style="fill:#000000;fill-opacity:1;stroke-width:0.101062"
       id="rect97"
       width="76.832497"
       height="9.6427975"
       x="-33.920856"
       y="196.77089"
       ry="4.8213987"
       transform="matrix(0.67697002,-0.7360106,0.67697002,0.7360106,0,0)" />
    <rect
       style="fill:#000000;fill-opacity:1;stroke-width:0.101062"
       id="rect97-7"
       width="76.832497"
       height="9.6427975"
       x="163.98735"
       y="-9.1961584"
       ry="4.8213987"
       transform="matrix(0.67697002,0.7360106,-0.67697002,0.7360106,0,0)" />
    <ellipse
       style="fill:#000000;fill-opacity:1;stroke-width:0.134745"
       id="path98"
       cx="112.21883"
       cy="116.3185"
       rx="13.123399"
       ry="14.267929" />
    <ellipse
       style="fill:#000000;fill-opacity:1;stroke-width:0.134745"
       id="path98-0"
       cx="164.91658"
       cy="115.26469"
       rx="13.123399"
       ry="14.267929" />
    <ellipse
       style="fill:#000000;fill-opacity:1;stroke-width:0.134745"
       id="path98-0-1"
       cx="165.24567"
       cy="172.75534"
       rx="13.123399"
       ry="14.267929" />
    <ellipse
       style="fill:#000000;fill-opacity:1;stroke-width:0.134745"
       id="path98-0-7"
       cx="113.36668"
       cy="172.64462"
       rx="13.123399"
       ry="14.267929" />
  </g>
</svg>
