<?xml version="1.0" encoding="UTF-8" standalone="no"?>
<!-- Created with Inkscape (http://www.inkscape.org/) -->

<svg
   width="64"
   height="64"
   viewBox="0 0 16.933332 16.933334"
   version="1.1"
   id="svg5"
   sodipodi:docname="recurrentNode.svg"
   inkscape:version="1.4 (86a8ad7, 2024-10-11)"
   xml:space="preserve"
   xmlns:inkscape="http://www.inkscape.org/namespaces/inkscape"
   xmlns:sodipodi="http://sodipodi.sourceforge.net/DTD/sodipodi-0.dtd"
   xmlns="http://www.w3.org/2000/svg"
   xmlns:svg="http://www.w3.org/2000/svg"
   xmlns:rdf="http://www.w3.org/1999/02/22-rdf-syntax-ns#"
   xmlns:cc="http://creativecommons.org/ns#"
   xmlns:dc="http://purl.org/dc/elements/1.1/"><sodipodi:namedview
     id="namedview1"
     pagecolor="#ffffff"
     bordercolor="#000000"
     borderopacity="0.25"
     inkscape:showpageshadow="2"
     inkscape:pageopacity="0.0"
     inkscape:pagecheckerboard="0"
     inkscape:deskcolor="#d1d1d1"
     showgrid="false"
     inkscape:zoom="4.3727483"
     inkscape:cx="25.613182"
     inkscape:cy="74.438311"
     inkscape:window-width="1920"
     inkscape:window-height="1001"
     inkscape:window-x="-9"
     inkscape:window-y="-9"
     inkscape:window-maximized="1"
     inkscape:current-layer="svg5" /><defs
     id="defs2" /><metadata
     id="metadata856"><rdf:RDF><cc:Work
         rdf:about=""><dc:creator><cc:Agent><dc:title>Inspire Studio</dc:title></cc:Agent></dc:creator><cc:license
           rdf:resource="http://creativecommons.org/publicdomain/zero/1.0/" /><dc:description>Thank you for using this artwork. Feel free to visit our page https://www.pinterest.com.au/inspirestudiobox for more designs. We wish you have a wonderful day, everyday. Amitabha</dc:description></cc:Work><cc:License
         rdf:about="http://creativecommons.org/publicdomain/zero/1.0/"><cc:permits
           rdf:resource="http://creativecommons.org/ns#Reproduction" /><cc:permits
           rdf:resource="http://creativecommons.org/ns#Distribution" /><cc:permits
           rdf:resource="http://creativecommons.org/ns#DerivativeWorks" /></cc:License></rdf:RDF></metadata><g
     id="g1"
     transform="matrix(0.06666779,0,0,0.06666779,-0.34334888,-0.34334888)"><circle
       style="fill:#b5c9ee;fill-opacity:1;stroke:#000000;stroke-width:14;stroke-dasharray:none;stroke-opacity:1"
       id="path1"
       cx="132.14801"
       cy="132.14801"
       r="119.99786" /><path
       style="fill:#000000;stroke-width:1.57856"
       d="m 121.55721,211.485 c -27.815332,-3.78981 -51.181643,-22.23299 -61.3581,-48.4303 -2.312725,-5.95366 -3.044054,-9.12346 -2.440903,-10.57961 0.276878,-0.66843 0.969422,-1.42765 1.53898,-1.68716 2.898749,-1.32077 4.205098,-0.006 6.175467,6.21071 7.499921,23.66669 27.320513,41.36912 52.457806,46.85178 3.86663,0.84333 5.52184,0.95584 13.99159,0.95101 9.05468,-0.005 9.8939,-0.0729 14.61808,-1.18027 11.99631,-2.81192 22.21409,-8.01902 31.26809,-15.93458 3.61089,-3.15685 9.05705,-9.17834 10.29937,-11.38735 0.35027,-0.62283 0.93788,-1.60227 1.30582,-2.17655 0.36795,-0.57428 1.53676,-2.3949 2.59734,-4.04583 6.75322,-10.51219 10.38437,-26.50936 9.10557,-40.11498 -1.67385,-17.80872 -8.66975,-32.356971 -21.44311,-44.59183 -10.13513,-9.707847 -21.11354,-15.405422 -35.00317,-18.165952 -2.17712,-0.432682 -4.02617,-0.718921 -4.10902,-0.636063 -0.0829,0.08287 1.97963,1.246096 4.58333,2.584964 5.05537,2.599549 6.13349,3.688579 5.63154,5.688529 -0.38182,1.521301 -1.86462,2.801825 -3.2444,2.801825 -1.45943,0 -26.9643,-13.17568 -27.52198,-14.2177 -0.66816,-1.24848 -0.46665,-3.103976 0.44317,-4.080566 0.46837,-0.502738 0.90903,-0.914078 0.97923,-0.914078 0.0703,0 5.86974,-1.973431 12.88789,-4.385416 7.01815,-2.411985 13.35212,-4.385432 14.0755,-4.385432 2.71195,0 4.34535,3.331951 2.63466,5.37435 -0.41861,0.499785 -2.60461,1.509224 -5.11632,2.36256 -2.41199,0.819444 -4.66734,1.59745 -5.01191,1.728881 -0.34457,0.131493 1.25298,0.563355 3.5501,0.959825 16.57073,2.860011 30.7721,10.366199 42.41684,22.419618 18.97057,19.636325 25.95682,47.622615 18.52202,74.197595 -1.92915,6.89548 -4.62336,12.76494 -9.26837,20.19139 -8.13081,12.99958 -21.03068,23.7558 -35.57662,29.66465 -11.77474,4.78312 -26.43886,6.63585 -38.98849,4.92598 z M 57.061337,146.75367 c -1.396106,-0.97788 -1.774928,-3.16151 -1.777469,-10.24601 -0.0016,-5.95343 0.06882,-6.57573 0.844558,-7.40839 0.465785,-0.49997 1.291291,-1.02056 1.834487,-1.1569 1.320462,-0.33141 3.523541,0.85224 3.760498,2.02042 0.10403,0.51268 0.301725,4.1757 0.439406,8.14006 l 0.250312,7.20793 -1.040852,1.04085 c -1.19334,1.19333 -2.947621,1.35695 -4.31094,0.40204 z m 1.462374,-24.23922 c -2.112217,-1.14606 -2.048571,-3.27662 0.31639,-10.59218 1.6067,-4.97002 2.604001,-6.29574 4.736124,-6.29574 1.608405,0 3.399782,1.58495 3.399782,3.00801 0,0.52674 -0.550096,2.64968 -1.22245,4.71766 -0.672354,2.06799 -1.522642,4.83818 -1.88953,6.15599 -0.525091,1.88601 -0.927228,2.53055 -1.889247,3.02803 -1.496944,0.7741 -1.990053,0.77098 -3.451069,-0.0217 z"
       id="path3" /></g></svg>
