<?xml version="1.0" encoding="UTF-8" standalone="no"?>
<!-- Created with Inkscape (http://www.inkscape.org/) -->

<svg
   width="64"
   height="64"
   viewBox="0 0 16.933332 16.933334"
   version="1.1"
   id="svg5"
   sodipodi:docname="automatic.svg"
   inkscape:version="1.4 (86a8ad7, 2024-10-11)"
   xml:space="preserve"
   xmlns:inkscape="http://www.inkscape.org/namespaces/inkscape"
   xmlns:sodipodi="http://sodipodi.sourceforge.net/DTD/sodipodi-0.dtd"
   xmlns="http://www.w3.org/2000/svg"
   xmlns:svg="http://www.w3.org/2000/svg"
   xmlns:rdf="http://www.w3.org/1999/02/22-rdf-syntax-ns#"
   xmlns:cc="http://creativecommons.org/ns#"
   xmlns:dc="http://purl.org/dc/elements/1.1/"><sodipodi:namedview
     id="namedview1"
     pagecolor="#ffffff"
     bordercolor="#000000"
     borderopacity="0.25"
     inkscape:showpageshadow="2"
     inkscape:pageopacity="0.0"
     inkscape:pagecheckerboard="0"
     inkscape:deskcolor="#d1d1d1"
     showgrid="false"
     inkscape:zoom="4.3727483"
     inkscape:cx="35.675504"
     inkscape:cy="75.353068"
     inkscape:window-width="1920"
     inkscape:window-height="1001"
     inkscape:window-x="-9"
     inkscape:window-y="-9"
     inkscape:window-maximized="1"
     inkscape:current-layer="svg5" /><defs
     id="defs2" /><metadata
     id="metadata856"><rdf:RDF><cc:Work
         rdf:about=""><dc:creator><cc:Agent><dc:title>Inspire Studio</dc:title></cc:Agent></dc:creator><cc:license
           rdf:resource="http://creativecommons.org/publicdomain/zero/1.0/" /><dc:description>Thank you for using this artwork. Feel free to visit our page https://www.pinterest.com.au/inspirestudiobox for more designs. We wish you have a wonderful day, everyday. Amitabha</dc:description></cc:Work><cc:License
         rdf:about="http://creativecommons.org/publicdomain/zero/1.0/"><cc:permits
           rdf:resource="http://creativecommons.org/ns#Reproduction" /><cc:permits
           rdf:resource="http://creativecommons.org/ns#Distribution" /><cc:permits
           rdf:resource="http://creativecommons.org/ns#DerivativeWorks" /></cc:License></rdf:RDF></metadata><g
     id="g1"
     transform="scale(0.06207997)"><circle
       style="fill:#b5c9ee;fill-opacity:1;stroke:#000000;stroke-width:14.967;stroke-dasharray:none;stroke-opacity:1"
       id="path1"
       cx="135.76987"
       cy="135.76987"
       r="128.28636" /></g><path
     style="fill:#000000;stroke-width:0.146542"
     d="M 7.7048646,14.647393 C 6.2991766,14.476873 5.0668728,13.875153 4.0581396,12.866743 3.2003294,12.009209 2.6085171,10.952727 2.3880607,9.8853834 2.3609466,9.7540911 2.3282591,9.6466704 2.3154343,9.6466704 c -0.012828,0 -0.1346172,0.1579437 -0.2706454,0.3509872 C 1.9087606,10.190701 1.7832458,10.357434 1.7658675,10.368174 1.7171317,10.398293 1.1477848,9.9858347 1.1674296,9.9346403 1.1891518,9.8780299 2.4207509,8.1346646 2.4908549,8.0612898 2.5343536,8.0157602 2.6883366,8.1110527 3.4854597,8.6768035 4.0041844,9.0449638 4.4428429,9.3591239 4.4602563,9.3749386 4.493912,9.4055012 4.1021265,9.9937626 4.0473384,9.994932 4.0295693,9.9953716 3.8060284,9.8454949 3.5505779,9.6620074 3.2951265,9.4785184 3.079379,9.335135 3.0711372,9.3433765 c -0.00824,0.00824 0.017554,0.1627298 0.057314,0.3433085 0.3432234,1.558658 1.4193036,2.93381 2.8510401,3.643428 0.8716072,0.431996 1.4251783,0.560187 2.4232757,0.561153 0.7249597,7.38e-4 1.0165816,-0.0415 1.642972,-0.237735 1.593224,-0.499132 2.954626,-1.848795 3.474618,-3.44466 0.04865,-0.149275 0.09278,-0.2766573 0.09807,-0.2830729 0.0167,-0.02022 0.656739,0.1514459 0.691766,0.1855409 0.05263,0.05122 -0.154176,0.634149 -0.405984,1.144387 -0.85428,1.731028 -2.452713,2.944835 -4.3654337,3.314991 -0.4806749,0.09302 -1.3868452,0.130909 -1.8339143,0.07667 z M 5.6648416,11.187875 C 5.6776691,11.139892 6.1567554,9.8967521 6.7294783,8.4253398 L 7.7707936,5.7500425 8.3701547,5.7394066 8.9695149,5.7287639 10.062648,8.4728595 c 0.601223,1.5092538 1.093094,2.7571815 1.093049,2.7731765 -4.8e-5,0.016 -0.267955,0.02908 -0.595352,0.02908 H 9.9650784 l -0.2331212,-0.610671 -0.233122,-0.610664 -1.1216234,-0.01027 -1.1216242,-0.01027 -0.051512,0.145968 c -0.028331,0.08029 -0.1296439,0.359704 -0.225143,0.620933 L 6.8052989,11.275101 H 6.2234077 5.6415166 Z M 9.0304561,8.9249992 C 9.0238004,8.8467255 8.9776734,8.6761088 8.9278953,8.5458526 8.8781178,8.4155963 8.7496765,8.0734791 8.6424693,7.7855941 8.5352621,7.497709 8.4270317,7.209824 8.4019566,7.1458498 8.357571,7.0326055 8.3512178,7.0433661 8.1615712,7.5529595 7.857248,8.3706974 7.74271,8.6872431 7.7056182,8.8130636 c -0.018858,0.063974 -0.045091,0.1512116 -0.058282,0.1938625 -0.023457,0.075803 -0.00806,0.077353 0.6855931,0.068966 l 0.7095868,-0.00857 z M 13.288095,8.3827373 C 12.765637,8.0094668 12.33817,7.691875 12.33817,7.6769776 c 0,-0.046206 0.385899,-0.5888856 0.418903,-0.5890922 0.01715,-1.07e-4 0.241327,0.1492964 0.498174,0.3320057 0.256848,0.1827108 0.473465,0.3257323 0.481374,0.3178249 C 13.770187,7.7041493 13.556367,6.8827906 13.426573,6.5467077 12.847386,5.0470053 11.553742,3.8246698 10.04574,3.3522373 9.4193499,3.1559986 9.1277279,3.1138021 8.4027681,3.1145033 7.4047878,3.1154446 6.8513485,3.2436082 5.9794919,3.6755719 4.7339445,4.2926812 3.7515568,5.4092837 3.301572,6.7193524 3.2429738,6.889952 3.1831158,7.0433265 3.1685529,7.0601876 3.1475636,7.0844901 2.7473261,6.9985358 2.4821902,6.9127841 2.4152487,6.8911359 2.6489596,6.2187947 2.8926045,5.732106 3.204411,5.109262 3.5213392,4.6762798 4.0584536,4.139343 4.7707142,3.4273164 5.53502,2.9486959 6.43939,2.6483636 7.6035455,2.261759 8.7786421,2.2225744 9.9649371,2.5307996 12.117355,3.0900448 13.79427,4.7878112 14.371694,6.9923535 c 0.04376,0.1670924 0.07957,0.3354129 0.07957,0.374047 0,0.1296424 0.06316,0.072224 0.304881,-0.2771685 0.132191,-0.1910752 0.257171,-0.357807 0.277734,-0.3705155 0.03582,-0.022138 0.619543,0.3598664 0.619126,0.4051712 -4.38e-4,0.041648 -1.34115,1.9165788 -1.37803,1.9270404 -0.02033,0.00576 -0.464426,-0.2949205 -0.986885,-0.6681908 z"
     id="path2" /></svg>
